<svg width="15" height="16" viewBox="0 0 15 16" fill="none" xmlns="http://www.w3.org/2000/svg">
<path d="M12 10.5H10.5V12.1667H12V10.5ZM12 7.16667H10.5V8.83333H12V7.16667ZM13.5 13.8333H7.5V12.1667H9V10.5H7.5V8.83333H9V7.16667H7.5V5.5H13.5V13.8333ZM6 3.83333H4.5V2.16667H6V3.83333ZM6 7.16667H4.5V5.5H6V7.16667ZM6 10.5H4.5V8.83333H6V10.5ZM6 13.8333H4.5V12.1667H6V13.8333ZM3 3.83333H1.5V2.16667H3V3.83333ZM3 7.16667H1.5V5.5H3V7.16667ZM3 10.5H1.5V8.83333H3V10.5ZM3 13.8333H1.5V12.1667H3V13.8333ZM7.5 3.83333V0.5H0V15.5H15V3.83333H7.5Z" fill="#323D45"/>
</svg>
